<svg width="219" height="219" viewBox="0 0 219 219" fill="none" xmlns="http://www.w3.org/2000/svg">
<path d="M107.719 74.7593C107.719 80.4559 106.946 85.5015 105.399 89.896C103.894 94.2905 101.676 98.0137 98.7466 101.065C95.8576 104.076 92.3582 106.355 88.2485 107.901C84.1795 109.448 79.5815 110.221 74.4546 110.221C69.6532 110.221 65.2383 109.448 61.21 107.901C57.2223 106.355 53.7433 104.076 50.7729 101.065C47.8433 98.0137 45.5646 94.2905 43.937 89.896C42.3501 85.5015 41.5566 80.4559 41.5566 74.7593C41.5566 67.1909 42.8994 60.7822 45.585 55.5332C48.2705 50.2842 52.0954 46.2965 57.0596 43.5703C62.0238 40.8441 67.9442 39.481 74.8208 39.481C81.2091 39.481 86.8651 40.8441 91.7886 43.5703C96.7528 46.2965 100.639 50.2842 103.446 55.5332C106.295 60.7822 107.719 67.1909 107.719 74.7593ZM60.5386 74.7593C60.5386 79.2352 61.0269 82.999 62.0034 86.0508C62.98 89.1025 64.5059 91.4015 66.5811 92.9478C68.6562 94.494 71.3621 95.2671 74.6987 95.2671C77.9946 95.2671 80.6598 94.494 82.6943 92.9478C84.7695 91.4015 86.2751 89.1025 87.2109 86.0508C88.1875 82.999 88.6758 79.2352 88.6758 74.7593C88.6758 70.2427 88.1875 66.4992 87.2109 63.5288C86.2751 60.5177 84.7695 58.2594 82.6943 56.7539C80.6191 55.2484 77.9132 54.4956 74.5767 54.4956C69.6532 54.4956 66.0724 56.1842 63.8345 59.5615C61.6372 62.9388 60.5386 68.0047 60.5386 74.7593ZM185.111 74.7593C185.111 80.4559 184.338 85.5015 182.792 89.896C181.286 94.2905 179.069 98.0137 176.139 101.065C173.25 104.076 169.751 106.355 165.641 107.901C161.572 109.448 156.974 110.221 151.847 110.221C147.046 110.221 142.631 109.448 138.603 107.901C134.615 106.355 131.136 104.076 128.166 101.065C125.236 98.0137 122.957 94.2905 121.33 89.896C119.743 85.5015 118.949 80.4559 118.949 74.7593C118.949 67.1909 120.292 60.7822 122.978 55.5332C125.663 50.2842 129.488 46.2965 134.452 43.5703C139.416 40.8441 145.337 39.481 152.213 39.481C158.602 39.481 164.258 40.8441 169.181 43.5703C174.145 46.2965 178.031 50.2842 180.839 55.5332C183.687 60.7822 185.111 67.1909 185.111 74.7593ZM137.931 74.7593C137.931 79.2352 138.419 82.999 139.396 86.0508C140.373 89.1025 141.898 91.4015 143.974 92.9478C146.049 94.494 148.755 95.2671 152.091 95.2671C155.387 95.2671 158.052 94.494 160.087 92.9478C162.162 91.4015 163.668 89.1025 164.604 86.0508C165.58 82.999 166.068 79.2352 166.068 74.7593C166.068 70.2427 165.58 66.4992 164.604 63.5288C163.668 60.5177 162.162 58.2594 160.087 56.7539C158.012 55.2484 155.306 54.4956 151.969 54.4956C147.046 54.4956 143.465 56.1842 141.227 59.5615C139.03 62.9388 137.931 68.0047 137.931 74.7593Z" fill="#E2C044"/>
<path d="M19.9577 132.239C29.6379 147.537 43.0245 160.142 58.8759 168.886C74.7273 177.629 92.5302 182.229 110.633 182.256C128.736 182.284 146.553 177.74 162.431 169.045C178.309 160.35 191.735 147.786 201.462 132.518L187.348 123.526C179.135 136.417 167.8 147.025 154.393 154.366C140.987 161.708 125.944 165.545 110.659 165.521C95.374 165.498 80.3427 161.615 66.9589 154.232C53.5752 146.85 42.2726 136.207 34.0994 123.291L19.9577 132.239Z" fill="#E2C044"/>
</svg>
